<svg width="385" height="567" viewBox="0 0 385 567" fill="none" xmlns="http://www.w3.org/2000/svg">
<path d="M300.178 351.139C300.178 348.914 301.982 347.11 304.207 347.11C306.431 347.11 308.235 348.914 308.235 351.139C308.235 353.363 306.431 355.167 304.207 355.167C302.007 355.167 300.178 353.363 300.178 351.139Z" fill="url(#paint0_linear)"/>
<path d="M304.898 259.82H303.564V348.791H304.898V259.82Z" fill="url(#paint1_linear)"/>
<path d="M117.442 241.581C117.442 239.357 119.246 237.552 121.47 237.552C123.694 237.552 125.499 239.357 125.499 241.581C125.499 243.805 123.694 245.609 121.47 245.609C119.246 245.609 117.442 243.805 117.442 241.581Z" fill="url(#paint2_linear)"/>
<path d="M122.137 150.262H120.803V239.258H122.137V150.262Z" fill="url(#paint3_linear)"/>
<path d="M167.513 146.901C167.513 144.677 169.317 142.873 171.541 142.873C173.765 142.873 175.569 144.677 175.569 146.901C175.569 149.125 173.765 150.929 171.541 150.929C169.317 150.929 167.513 149.125 167.513 146.901Z" fill="url(#paint4_linear)"/>
<path d="M172.233 55.5822H170.898V144.553H172.233V55.5822Z" fill="url(#paint5_linear)"/>
<path d="M207.747 167.34C207.747 165.115 209.551 163.311 211.776 163.311C214 163.311 215.804 165.115 215.804 167.34C215.804 169.564 214 171.368 211.776 171.368C209.576 171.393 207.747 169.589 207.747 167.34Z" fill="url(#paint6_linear)"/>
<path d="M212.468 76.0455H211.133V165.041H212.468V76.0455Z" fill="url(#paint7_linear)"/>
<path d="M273.388 397.082C273.388 394.858 275.192 393.054 277.416 393.054C279.641 393.054 281.445 394.858 281.445 397.082C281.445 399.307 279.641 401.111 277.416 401.111C275.192 401.111 273.388 399.307 273.388 397.082Z" fill="url(#paint8_linear)"/>
<path d="M278.108 305.764H276.774V394.735H278.108V305.764Z" fill="url(#paint9_linear)"/>
<path d="M335.742 137.954C335.742 135.73 337.546 133.926 339.77 133.926C341.994 133.926 343.799 135.73 343.799 137.954C343.799 140.179 341.994 141.983 339.77 141.983C337.546 141.983 335.742 140.179 335.742 137.954Z" fill="url(#paint10_linear)"/>
<path d="M340.438 46.6603H339.103V135.631H340.438V46.6603Z" fill="url(#paint11_linear)"/>
<path d="M224.553 134C224.553 131.776 226.357 129.972 228.581 129.972C230.806 129.972 232.61 131.776 232.61 134C232.61 136.225 230.806 138.029 228.581 138.029C226.357 138.029 224.553 136.225 224.553 134Z" fill="url(#paint12_linear)"/>
<path d="M229.273 87.1917H227.939V131.677H229.273V87.1917Z" fill="url(#paint13_linear)"/>
<path d="M376.495 357.663C376.495 355.439 378.3 353.635 380.524 353.635C382.748 353.635 384.552 355.439 384.552 357.663C384.552 359.888 382.748 361.692 380.524 361.692C378.324 361.692 376.495 359.888 376.495 357.663Z" fill="url(#paint14_linear)"/>
<path d="M381.216 310.83H379.881V355.315H381.216V310.83Z" fill="url(#paint15_linear)"/>
<path d="M89.7866 46.8086C89.7866 44.5843 91.5907 42.7802 93.815 42.7802C96.0392 42.7802 97.8434 44.5843 97.8434 46.8086C97.8434 49.0329 96.0392 50.837 93.815 50.837C91.6154 50.837 89.7866 49.0329 89.7866 46.8086Z" fill="url(#paint16_linear)"/>
<path d="M94.5069 0H93.1724V44.4855H94.5069V0Z" fill="url(#paint17_linear)"/>
<path d="M144.726 121.94C144.726 119.715 146.53 117.911 148.754 117.911C150.979 117.911 152.783 119.715 152.783 121.94C152.783 124.164 150.979 125.968 148.754 125.968C146.53 125.968 144.726 124.164 144.726 121.94Z" fill="url(#paint18_linear)"/>
<path d="M149.447 75.1063H148.112V119.592H149.447V75.1063Z" fill="url(#paint19_linear)"/>
<path d="M274.97 60.3026C274.97 58.0783 276.774 56.2742 278.998 56.2742C281.222 56.2742 283.027 58.0783 283.027 60.3026C283.027 62.5269 281.222 64.331 278.998 64.331C276.799 64.3557 274.97 62.5269 274.97 60.3026Z" fill="url(#paint20_linear)"/>
<path d="M279.69 13.494H278.356V57.9795H279.69V13.494Z" fill="url(#paint21_linear)"/>
<path d="M218.918 385.862C218.918 383.638 220.722 381.834 222.946 381.834C225.171 381.834 226.975 383.638 226.975 385.862C226.975 388.086 225.171 389.89 222.946 389.89C220.722 389.89 218.918 388.086 218.918 385.862Z" fill="url(#paint22_linear)"/>
<path d="M223.614 294.543H222.279V383.539H223.614V294.543Z" fill="url(#paint23_linear)"/>
<path d="M82.3229 224.825C82.3229 222.6 84.127 220.796 86.3513 220.796C88.5756 220.796 90.3797 222.6 90.3797 224.825C90.3797 227.049 88.5756 228.853 86.3513 228.853C84.127 228.853 82.3229 227.049 82.3229 224.825Z" fill="url(#paint24_linear)"/>
<path d="M87.0432 133.531H85.7087V222.502H87.0432V133.531Z" fill="url(#paint25_linear)"/>
<path d="M334.852 338.633C334.852 336.409 336.656 334.605 338.88 334.605C341.105 334.605 342.909 336.409 342.909 338.633C342.909 340.858 341.105 342.662 338.88 342.662C336.656 342.686 334.852 340.882 334.852 338.633Z" fill="url(#paint26_linear)"/>
<path d="M339.548 247.339H338.213V336.335H339.548V247.339Z" fill="url(#paint27_linear)"/>
<path d="M0 193.314C0 191.09 1.80413 189.286 4.02841 189.286C6.25268 189.286 8.05681 191.09 8.05681 193.314C8.05681 195.538 6.25268 197.343 4.02841 197.343C1.80413 197.343 0 195.538 0 193.314Z" fill="url(#paint28_linear)"/>
<path d="M4.69565 101.995H3.36108V190.991H4.69565V101.995Z" fill="url(#paint29_linear)"/>
<path d="M140.698 562.815C140.698 560.591 142.502 558.787 144.726 558.787C146.95 558.787 148.755 560.591 148.755 562.815C148.755 565.04 146.95 566.844 144.726 566.844C142.502 566.869 140.698 565.04 140.698 562.815Z" fill="url(#paint30_linear)"/>
<path d="M145.393 253.468H144.059V560.492H145.393V253.468Z" fill="url(#paint31_linear)"/>
<path d="M49.3789 546.504C49.3789 544.28 51.183 542.476 53.4073 542.476C55.6316 542.476 57.4357 544.28 57.4357 546.504C57.4357 548.728 55.6316 550.533 53.4073 550.533C51.183 550.557 49.3789 548.753 49.3789 546.504Z" fill="url(#paint32_linear)"/>
<path d="M54.0993 72.9315H52.7648V544.206H54.0993V72.9315Z" fill="url(#paint33_linear)"/>
<path d="M311.522 387.024C311.522 384.8 313.326 382.995 315.55 382.995C317.775 382.995 319.579 384.8 319.579 387.024C319.579 389.248 317.775 391.052 315.55 391.052C313.326 391.052 311.522 389.248 311.522 387.024Z" fill="url(#paint34_linear)"/>
<path d="M316.218 77.6766H314.883V384.701H316.218V77.6766Z" fill="url(#paint35_linear)"/>
<path d="M203.002 477.008C203.002 474.784 204.806 472.98 207.03 472.98C209.255 472.98 211.059 474.784 211.059 477.008C211.059 479.232 209.255 481.037 207.03 481.037C204.806 481.061 203.002 479.232 203.002 477.008Z" fill="url(#paint36_linear)"/>
<path d="M207.723 167.686H206.388V474.71H207.723V167.686Z" fill="url(#paint37_linear)"/>
<path d="M38.7517 452.269C38.7517 450.045 40.5558 448.241 42.7801 448.241C45.0044 448.241 46.8085 450.045 46.8085 452.269C46.8085 454.493 45.0044 456.297 42.7801 456.297C40.5558 456.297 38.7517 454.493 38.7517 452.269Z" fill="url(#paint38_linear)"/>
<path d="M43.4474 142.922H42.1128V449.946H43.4474V142.922Z" fill="url(#paint39_linear)"/>
<path d="M288.291 238.862C288.291 236.638 290.095 234.834 292.319 234.834C294.543 234.834 296.347 236.638 296.347 238.862C296.347 241.087 294.543 242.891 292.319 242.891C290.095 242.916 288.291 241.111 288.291 238.862Z" fill="url(#paint40_linear)"/>
<path d="M293.011 66.6788H291.676V236.539H293.011V66.6788Z" fill="url(#paint41_linear)"/>
<path d="M109.014 329.316C109.014 327.092 110.818 325.288 113.043 325.288C115.267 325.288 117.071 327.092 117.071 329.316C117.071 331.54 115.267 333.345 113.043 333.345C110.818 333.345 109.014 331.54 109.014 329.316Z" fill="url(#paint42_linear)"/>
<path d="M113.735 157.133H112.4V326.993H113.735V157.133Z" fill="url(#paint43_linear)"/>
<defs>
<linearGradient id="paint0_linear" x1="304.224" y1="328.457" x2="304.224" y2="258.437" gradientUnits="userSpaceOnUse">
<stop stop-color="#A4FFFF"/>
<stop offset="1" stop-color="#A4FFFF" stop-opacity="0"/>
</linearGradient>
<linearGradient id="paint1_linear" x1="304.226" y1="328.456" x2="304.226" y2="258.438" gradientUnits="userSpaceOnUse">
<stop stop-color="#A4FFFF"/>
<stop offset="1" stop-color="#A4FFFF" stop-opacity="0"/>
</linearGradient>
<linearGradient id="paint2_linear" x1="121.47" y1="218.897" x2="121.47" y2="148.856" gradientUnits="userSpaceOnUse">
<stop stop-color="#A4FFFF"/>
<stop offset="1" stop-color="#A4FFFF" stop-opacity="0"/>
</linearGradient>
<linearGradient id="paint3_linear" x1="121.47" y1="218.905" x2="121.47" y2="148.884" gradientUnits="userSpaceOnUse">
<stop stop-color="#A4FFFF"/>
<stop offset="1" stop-color="#A4FFFF" stop-opacity="0"/>
</linearGradient>
<linearGradient id="paint4_linear" x1="171.557" y1="124.226" x2="171.557" y2="54.2065" gradientUnits="userSpaceOnUse">
<stop stop-color="#A4FFFF"/>
<stop offset="1" stop-color="#A4FFFF" stop-opacity="0"/>
</linearGradient>
<linearGradient id="paint5_linear" x1="171.557" y1="124.225" x2="171.557" y2="54.2073" gradientUnits="userSpaceOnUse">
<stop stop-color="#A4FFFF"/>
<stop offset="1" stop-color="#A4FFFF" stop-opacity="0"/>
</linearGradient>
<linearGradient id="paint6_linear" x1="211.795" y1="144.676" x2="211.795" y2="74.6535" gradientUnits="userSpaceOnUse">
<stop stop-color="#A4FFFF"/>
<stop offset="1" stop-color="#A4FFFF" stop-opacity="0"/>
</linearGradient>
<linearGradient id="paint7_linear" x1="211.795" y1="144.676" x2="211.795" y2="74.6568" gradientUnits="userSpaceOnUse">
<stop stop-color="#A4FFFF"/>
<stop offset="1" stop-color="#A4FFFF" stop-opacity="0"/>
</linearGradient>
<linearGradient id="paint8_linear" x1="277.431" y1="374.411" x2="277.431" y2="304.41" gradientUnits="userSpaceOnUse">
<stop stop-color="#A4FFFF"/>
<stop offset="1" stop-color="#A4FFFF" stop-opacity="0"/>
</linearGradient>
<linearGradient id="paint9_linear" x1="277.432" y1="374.404" x2="277.432" y2="304.386" gradientUnits="userSpaceOnUse">
<stop stop-color="#A4FFFF"/>
<stop offset="1" stop-color="#A4FFFF" stop-opacity="0"/>
</linearGradient>
<linearGradient id="paint10_linear" x1="339.771" y1="115.282" x2="339.771" y2="45.2625" gradientUnits="userSpaceOnUse">
<stop stop-color="#A4FFFF"/>
<stop offset="1" stop-color="#A4FFFF" stop-opacity="0"/>
</linearGradient>
<linearGradient id="paint11_linear" x1="339.77" y1="115.281" x2="339.77" y2="45.263" gradientUnits="userSpaceOnUse">
<stop stop-color="#A4FFFF"/>
<stop offset="1" stop-color="#A4FFFF" stop-opacity="0"/>
</linearGradient>
<linearGradient id="paint12_linear" x1="228.593" y1="111.331" x2="228.593" y2="41.3119" gradientUnits="userSpaceOnUse">
<stop stop-color="#A4FFFF"/>
<stop offset="1" stop-color="#A4FFFF" stop-opacity="0"/>
</linearGradient>
<linearGradient id="paint13_linear" x1="228.594" y1="121.508" x2="228.594" y2="86.4979" gradientUnits="userSpaceOnUse">
<stop stop-color="#A4FFFF"/>
<stop offset="1" stop-color="#A4FFFF" stop-opacity="0"/>
</linearGradient>
<linearGradient id="paint14_linear" x1="380.542" y1="334.981" x2="380.542" y2="264.961" gradientUnits="userSpaceOnUse">
<stop stop-color="#A4FFFF"/>
<stop offset="1" stop-color="#A4FFFF" stop-opacity="0"/>
</linearGradient>
<linearGradient id="paint15_linear" x1="380.542" y1="345.157" x2="380.542" y2="310.148" gradientUnits="userSpaceOnUse">
<stop stop-color="#A4FFFF"/>
<stop offset="1" stop-color="#A4FFFF" stop-opacity="0"/>
</linearGradient>
<linearGradient id="paint16_linear" x1="93.8352" y1="24.1391" x2="93.8352" y2="-45.8808" gradientUnits="userSpaceOnUse">
<stop stop-color="#A4FFFF"/>
<stop offset="1" stop-color="#A4FFFF" stop-opacity="0"/>
</linearGradient>
<linearGradient id="paint17_linear" x1="93.8342" y1="34.3154" x2="93.8342" y2="-0.694468" gradientUnits="userSpaceOnUse">
<stop stop-color="#A4FFFF"/>
<stop offset="1" stop-color="#A4FFFF" stop-opacity="0"/>
</linearGradient>
<linearGradient id="paint18_linear" x1="148.771" y1="99.2508" x2="148.771" y2="29.2096" gradientUnits="userSpaceOnUse">
<stop stop-color="#A4FFFF"/>
<stop offset="1" stop-color="#A4FFFF" stop-opacity="0"/>
</linearGradient>
<linearGradient id="paint19_linear" x1="148.771" y1="109.435" x2="148.771" y2="74.4254" gradientUnits="userSpaceOnUse">
<stop stop-color="#A4FFFF"/>
<stop offset="1" stop-color="#A4FFFF" stop-opacity="0"/>
</linearGradient>
<linearGradient id="paint20_linear" x1="279.018" y1="37.6352" x2="279.018" y2="-32.3847" gradientUnits="userSpaceOnUse">
<stop stop-color="#A4FFFF"/>
<stop offset="1" stop-color="#A4FFFF" stop-opacity="0"/>
</linearGradient>
<linearGradient id="paint21_linear" x1="279.02" y1="47.8103" x2="279.02" y2="12.8042" gradientUnits="userSpaceOnUse">
<stop stop-color="#A4FFFF"/>
<stop offset="1" stop-color="#A4FFFF" stop-opacity="0"/>
</linearGradient>
<linearGradient id="paint22_linear" x1="222.957" y1="363.188" x2="222.957" y2="293.168" gradientUnits="userSpaceOnUse">
<stop stop-color="#A4FFFF"/>
<stop offset="1" stop-color="#A4FFFF" stop-opacity="0"/>
</linearGradient>
<linearGradient id="paint23_linear" x1="222.956" y1="363.188" x2="222.956" y2="293.168" gradientUnits="userSpaceOnUse">
<stop stop-color="#A4FFFF"/>
<stop offset="1" stop-color="#A4FFFF" stop-opacity="0"/>
</linearGradient>
<linearGradient id="paint24_linear" x1="86.3644" y1="202.151" x2="86.3644" y2="132.131" gradientUnits="userSpaceOnUse">
<stop stop-color="#A4FFFF"/>
<stop offset="1" stop-color="#A4FFFF" stop-opacity="0"/>
</linearGradient>
<linearGradient id="paint25_linear" x1="86.3631" y1="202.152" x2="86.3631" y2="132.134" gradientUnits="userSpaceOnUse">
<stop stop-color="#A4FFFF"/>
<stop offset="1" stop-color="#A4FFFF" stop-opacity="0"/>
</linearGradient>
<linearGradient id="paint26_linear" x1="338.887" y1="315.964" x2="338.887" y2="245.923" gradientUnits="userSpaceOnUse">
<stop stop-color="#A4FFFF"/>
<stop offset="1" stop-color="#A4FFFF" stop-opacity="0"/>
</linearGradient>
<linearGradient id="paint27_linear" x1="338.888" y1="315.97" x2="338.888" y2="245.952" gradientUnits="userSpaceOnUse">
<stop stop-color="#A4FFFF"/>
<stop offset="1" stop-color="#A4FFFF" stop-opacity="0"/>
</linearGradient>
<linearGradient id="paint28_linear" x1="4.03656" y1="170.631" x2="4.03656" y2="100.611" gradientUnits="userSpaceOnUse">
<stop stop-color="#A4FFFF"/>
<stop offset="1" stop-color="#A4FFFF" stop-opacity="0"/>
</linearGradient>
<linearGradient id="paint29_linear" x1="4.03751" y1="170.631" x2="4.03751" y2="100.612" gradientUnits="userSpaceOnUse">
<stop stop-color="#A4FFFF"/>
<stop offset="1" stop-color="#A4FFFF" stop-opacity="0"/>
</linearGradient>
<linearGradient id="paint30_linear" x1="144.735" y1="523.33" x2="144.735" y2="398.631" gradientUnits="userSpaceOnUse">
<stop stop-color="#A4FFFF"/>
<stop offset="1" stop-color="#A4FFFF" stop-opacity="0"/>
</linearGradient>
<linearGradient id="paint31_linear" x1="144.736" y1="492.128" x2="144.736" y2="262.739" gradientUnits="userSpaceOnUse">
<stop stop-color="#A4FFFF"/>
<stop offset="1" stop-color="#A4FFFF" stop-opacity="0"/>
</linearGradient>
<linearGradient id="paint32_linear" x1="53.4214" y1="507.025" x2="53.4214" y2="382.326" gradientUnits="userSpaceOnUse">
<stop stop-color="#A4FFFF"/>
<stop offset="1" stop-color="#A4FFFF" stop-opacity="0"/>
</linearGradient>
<linearGradient id="paint33_linear" x1="53.4227" y1="439.246" x2="53.4227" y2="87.1441" gradientUnits="userSpaceOnUse">
<stop stop-color="#A4FFFF"/>
<stop offset="1" stop-color="#A4FFFF" stop-opacity="0"/>
</linearGradient>
<linearGradient id="paint34_linear" x1="315.548" y1="347.534" x2="315.548" y2="222.835" gradientUnits="userSpaceOnUse">
<stop stop-color="#A4FFFF"/>
<stop offset="1" stop-color="#A4FFFF" stop-opacity="0"/>
</linearGradient>
<linearGradient id="paint35_linear" x1="315.55" y1="316.331" x2="315.55" y2="86.9432" gradientUnits="userSpaceOnUse">
<stop stop-color="#A4FFFF"/>
<stop offset="1" stop-color="#A4FFFF" stop-opacity="0"/>
</linearGradient>
<linearGradient id="paint36_linear" x1="207.045" y1="437.523" x2="207.045" y2="312.825" gradientUnits="userSpaceOnUse">
<stop stop-color="#A4FFFF"/>
<stop offset="1" stop-color="#A4FFFF" stop-opacity="0"/>
</linearGradient>
<linearGradient id="paint37_linear" x1="207.046" y1="406.319" x2="207.046" y2="176.932" gradientUnits="userSpaceOnUse">
<stop stop-color="#A4FFFF"/>
<stop offset="1" stop-color="#A4FFFF" stop-opacity="0"/>
</linearGradient>
<linearGradient id="paint38_linear" x1="42.7873" y1="412.78" x2="42.7873" y2="288.081" gradientUnits="userSpaceOnUse">
<stop stop-color="#A4FFFF"/>
<stop offset="1" stop-color="#A4FFFF" stop-opacity="0"/>
</linearGradient>
<linearGradient id="paint39_linear" x1="42.7872" y1="381.577" x2="42.7872" y2="152.19" gradientUnits="userSpaceOnUse">
<stop stop-color="#A4FFFF"/>
<stop offset="1" stop-color="#A4FFFF" stop-opacity="0"/>
</linearGradient>
<linearGradient id="paint40_linear" x1="292.33" y1="199.369" x2="292.33" y2="74.632" gradientUnits="userSpaceOnUse">
<stop stop-color="#A4FFFF"/>
<stop offset="1" stop-color="#A4FFFF" stop-opacity="0"/>
</linearGradient>
<linearGradient id="paint41_linear" x1="292.33" y1="198.724" x2="292.33" y2="71.8085" gradientUnits="userSpaceOnUse">
<stop stop-color="#A4FFFF"/>
<stop offset="1" stop-color="#A4FFFF" stop-opacity="0"/>
</linearGradient>
<linearGradient id="paint42_linear" x1="113.055" y1="289.828" x2="113.055" y2="165.167" gradientUnits="userSpaceOnUse">
<stop stop-color="#A4FFFF"/>
<stop offset="1" stop-color="#A4FFFF" stop-opacity="0"/>
</linearGradient>
<linearGradient id="paint43_linear" x1="113.055" y1="289.159" x2="113.055" y2="162.245" gradientUnits="userSpaceOnUse">
<stop stop-color="#A4FFFF"/>
<stop offset="1" stop-color="#A4FFFF" stop-opacity="0"/>
</linearGradient>
</defs>
</svg>
